<?xml version="1.0" encoding="utf-8"?>
<!-- Generator: Adobe Illustrator 25.4.1, SVG Export Plug-In . SVG Version: 6.00 Build 0)  -->
<svg version="1.1" id="Layer_1" xmlns="http://www.w3.org/2000/svg" xmlns:xlink="http://www.w3.org/1999/xlink" x="0px" y="0px"
	 viewBox="0 0 5000 5000" style="enable-background:new 0 0 5000 5000;" xml:space="preserve">
<style type="text/css">
	.st0{fill:#FFFFFF;}
	.st1{fill:#FFFFFF;stroke:#1D1D1B;}
</style>
<path class="st0" d="M3210.07,3624.77c-210.57,0-421.14,0-631.71,0c-0.43-8.2-1.23-16.4-1.23-24.6
	c-0.06-732.65-0.05-1465.29-0.05-2197.94c0-4.12-0.14-8.25,0.07-12.36c0.24-4.85,0.79-9.69,1.21-14.53c209.82,0,419.64,0,629.47,0
	c1.74,2.44,3.59,4.8,5.19,7.33c20.62,32.62,41.25,65.22,61.78,97.9c22.52,35.84,44.88,71.78,67.4,107.63
	c33.88,53.93,67.85,107.79,101.75,161.71c25.32,40.28,50.56,80.61,75.87,120.9c27.69,44.1,55.41,88.18,83.12,132.26
	c17.94,28.55,35.86,57.1,53.82,85.63c18.96,30.12,38.01,60.18,56.94,90.31c18.54,29.5,36.93,59.09,55.47,88.58
	c22.73,36.15,45.6,72.22,68.34,108.36c23.34,37.09,46.57,74.26,69.94,111.34c8.75,13.88,8.78,14.44,0.1,28.13
	c-16.04,25.31-31.99,50.69-47.95,76.05c-22.34,35.51-44.66,71.04-67,106.55c-22.15,35.2-44.34,70.37-66.46,105.58
	c-26.31,41.87-52.54,83.79-78.85,125.66c-18.94,30.13-38,60.19-56.93,90.32c-23.32,37.11-46.55,74.28-69.87,111.38
	c-25.12,39.96-50.34,79.86-75.45,119.83c-22.51,35.85-44.88,71.79-67.4,107.63c-25.9,41.24-51.91,82.4-77.84,123.62
	C3269.87,3529.62,3239.98,3577.2,3210.07,3624.77z M3513.49,2628.7c-6.18-0.11-11.01-0.28-15.83-0.28
	c-219.85-0.01-439.71-0.01-659.56-0.01c-3.74,0-7.5-0.08-11.23,0.15c-2.14,0.13-4.25,0.79-6.46,1.23
	c-2.32,6.28-1.57,12.31-1.57,18.22c-0.04,234.23-0.03,468.45-0.03,702.68c0,3-0.02,6,0.06,8.99c0.05,1.87,0.18,3.74,0.43,5.59
	c0.41,2.97,2.26,4.8,5.16,5.07c4.46,0.41,8.96,0.65,13.44,0.65c64.8,0.04,129.59,0.03,194.39,0.02c2.62,0,5.25-0.19,7.86-0.03
	c6.24,0.36,10.48-2.16,13.79-7.61c9.14-15.04,18.74-29.81,28.1-44.72c25.49-40.6,50.91-81.25,76.42-121.83
	c22.72-36.15,45.56-72.22,68.3-108.36c27.12-43.12,54.17-86.28,81.27-129.41c27.89-44.4,55.81-88.78,83.71-133.16
	c23.72-37.73,47.43-75.47,71.15-113.2c14.55-23.15,29.13-46.28,43.63-69.46C3509.04,2639.19,3511.97,2635.28,3513.49,2628.7z
	 M2820.21,2372.1c5.83,2.28,10.75,1.55,15.56,1.55c221.06,0.04,442.12,0.03,663.18,0.03c3,0,6,0.02,8.99-0.08
	c1.82-0.06,3.82,0.05,4.99-3.17c-2.91-4.87-6.04-10.36-9.4-15.71c-21.93-34.9-43.94-69.75-65.86-104.65
	c-29.5-46.96-58.92-93.96-88.43-140.91c-29.31-46.63-58.74-93.18-88.05-139.81c-33.09-52.66-66.08-105.39-99.15-158.07
	c-34.66-55.21-69.24-110.48-104.13-165.55c-9.87-15.58-6.09-13.85-24.78-13.87c-65.19-0.09-130.39-0.04-195.58-0.03
	c-3.37,0-6.77-0.15-10.11,0.17c-2.48,0.24-4.9,1.16-7.97,1.93c-0.24,6.01-0.65,11.58-0.65,17.14
	c-0.03,234.69-0.03,469.38-0.02,704.07c0,3.37-0.07,6.76,0.15,10.12C2819.1,2367.42,2819.73,2369.57,2820.21,2372.1z"/>
<path class="st0" d="M1791.52,1375.34c209.82,0,419.64,0,629.47,0c0.3,7.85,0.87,15.71,0.87,23.56
	c0.04,734.86,0.04,1469.72,0.04,2204.58c0,4.12,0.09,8.25-0.06,12.36c-0.11,2.98-0.55,5.95-0.85,8.92c-80.18,0-160.36,0-240.55,0
	c0.15-5.24,0.42-10.48,0.42-15.72c0.02-319.35,0.02-638.71,0.01-958.06c0-4.12,0.11-8.26-0.16-12.36c-0.17-2.5-0.97-4.96-1.36-6.86
	c-5.13-3.32-10.12-2.53-14.93-2.53c-221.02-0.03-442.03-0.03-663.05-0.02c-2.99,0-5.99,0.04-8.98,0.23
	c-2.38,0.15-4.35,1.06-5.16,4.78c12.37,19.59,25.19,39.8,37.92,60.07c12.95,20.62,25.79,41.31,38.72,61.94
	c12.74,20.31,25.53,40.59,38.31,60.87c12.98,20.6,25.97,41.19,38.93,61.81c12.76,20.3,25.49,40.62,38.23,60.93
	c12.94,20.63,25.85,41.27,38.82,61.88c12.77,20.29,25.75,40.45,38.34,60.85c12.75,20.67,26.56,40.71,38.35,62.14
	c-1.64,3.05-2.9,5.74-4.46,8.25c-19.26,30.81-38.56,61.6-57.87,92.37c-19.71,31.41-39.45,62.8-59.19,94.2
	c-10.37,16.49-20.74,32.98-31.15,49.44c-1.77,2.8-3.24,6.01-7.19,6.61c-3.84-1.35-5.51-4.89-7.46-7.99
	c-14.58-23.13-29.06-46.33-43.59-69.5c-25.87-41.26-51.72-82.53-77.65-123.76c-33.7-53.59-67.5-107.12-101.21-160.7
	c-29.52-46.92-58.98-93.89-88.48-140.83c-18.14-28.86-36.32-57.7-54.44-86.57c-22.5-35.85-44.93-71.75-67.44-107.59
	c-19.33-30.77-38.74-61.49-58.09-92.25c-15.56-24.73-31.08-49.49-46.65-74.21c-2.38-3.78-4.47-7.87-8.87-9.87c0-0.75,0-1.5,0-2.25
	c5.44-1.41,7.01-6.51,9.53-10.47c15.06-23.7,29.9-47.53,44.83-71.31c22.29-35.52,44.57-71.04,66.91-106.53
	c25.72-40.88,51.52-81.71,77.23-122.59c23.12-36.76,46.14-73.59,69.25-110.36c21.92-34.86,43.97-69.65,65.87-104.53
	c22.89-36.46,45.62-73.02,68.52-109.48c33.66-53.58,67.41-107.1,101.11-160.65c29.51-46.9,59-93.81,88.48-140.73
	c25.89-41.21,51.7-82.48,77.64-123.66C1764.07,1418.2,1777.84,1396.8,1791.52,1375.34z M1485.75,2372.51
	c6.18,1.7,11.05,1.14,15.84,1.14c219.88,0.03,439.76,0.03,659.63,0.02c3.75,0,7.5,0.08,11.23-0.11c2.16-0.11,4.29-0.7,6.53-1.09
	c2.69-6.15,1.86-12.2,1.86-18.09c0.04-234.25,0.03-468.5,0.03-702.75c0-3,0.05-6-0.07-8.99c-0.38-9.39-1.32-10.38-10.31-10.75
	c-2.99-0.12-5.99-0.07-8.99-0.07c-64.8,0-129.6,0-194.41,0c-3,0-6,0.17-8.99,0.02c-5.42-0.27-9.14,1.98-11.98,6.65
	c-6.42,10.56-13.17,20.91-19.75,31.38c-23.31,37.11-46.6,74.24-69.91,111.35c-29.88,47.58-59.77,95.16-89.68,142.72
	c-30.1,47.89-60.23,95.75-90.34,143.64c-22.13,35.2-44.26,70.4-66.37,105.61c-14.54,23.15-29.03,46.35-43.6,69.48
	c-25.55,40.57-51.14,81.11-76.68,121.7C1488.46,2366.55,1487.51,2368.97,1485.75,2372.51z"/>
<polygon class="st0" points="1485.75,1375.34 775.35,2500.05 460.15,2500.05 1170.54,1375.34 "/>
<polygon class="st0" points="1485.75,1375.34 775.35,2500.05 460.15,2500.05 1170.54,1375.34 "/>
<polygon class="st0" points="3512.93,1375.34 4223.33,2500.05 4538.53,2500.05 3828.13,1375.34 "/>
<polygon class="st0" points="3512.93,3624.77 4223.33,2500.05 4538.53,2500.05 3828.13,3624.77 "/>
<polygon class="st0" points="1485.75,3624.77 775.35,2500.05 460.15,2500.05 1170.54,3624.77 "/>
<polygon class="st0" points="1554.55,4146.82 2884.83,4146.11 3053.01,3879.52 1722.73,3880.24 "/>
<polygon class="st0" points="1951.72,1120.59 3282,1119.88 3450.18,853.29 2119.9,854.01 "/>
<polygon class="st0" points="1815.27,4146.82 1500.73,4146.82 1170.55,3624.78 1485.75,3624.78 "/>
<polygon class="st0" points="3827.47,1375.33 3512.93,1375.33 3182.75,853.29 3497.95,853.29 "/>
<line class="st1" x1="3053.45" y1="3880.94" x2="3053.01" y2="3880.94"/>
<polygon class="st0" points="1722.73,3880.24 1684.87,3940.24 1647,3880.24 "/>
<line class="st0" x1="1090.66" y1="2489.58" x2="1791.52" y2="1375.34"/>
<polygon class="st0" points="3351.36,1119.88 3282,1119.88 3316.64,1064.98 "/>
</svg>
